<?xml version="1.0" standalone="no"?>
<!DOCTYPE svg PUBLIC "-//W3C//DTD SVG 20010904//EN"
 "http://www.w3.org/TR/2001/REC-SVG-20010904/DTD/svg10.dtd">
<svg version="1.0" xmlns="http://www.w3.org/2000/svg"
 width="160.000000pt" height="217.000000pt" viewBox="0 0 160.000000 217.000000"
 preserveAspectRatio="xMidYMid meet">
<metadata>
Created by potrace 1.16, written by Peter Selinger 2001-2019
</metadata>
<g transform="translate(0.000000,217.000000) scale(0.100000,-0.100000)"
fill="#000000" stroke="none">
<path d="M800 2131 c0 -14 -6 -21 -20 -21 -12 0 -20 -7 -20 -16 0 -13 3 -14
14 -5 20 17 32 -5 15 -26 -10 -11 -24 -14 -54 -9 l-42 5 7 -42 c3 -24 9 -48
13 -54 5 -7 0 -9 -13 -6 -22 6 -28 -12 -7 -21 17 -7 -21 -36 -39 -29 -8 3 -14
0 -14 -7 0 -17 -51 -8 -64 12 -5 9 -6 21 -2 25 5 4 11 2 13 -4 6 -18 23 -16
23 2 0 24 -41 18 -47 -6 -5 -19 -11 -21 -54 -17 -27 3 -46 1 -43 -4 3 -4 1 -8
-4 -8 -5 0 -26 -13 -47 -30 -21 -16 -46 -30 -56 -30 -11 0 -19 -5 -19 -11 0
-6 -12 -9 -27 -7 -22 2 -28 8 -28 27 0 13 6 26 14 29 10 3 12 0 8 -12 -5 -12
-3 -16 5 -14 21 7 15 33 -9 36 -13 2 -23 12 -26 25 l-4 22 -2 -22 c-1 -14 -9
-23 -23 -25 -24 -3 -31 -29 -10 -36 8 -2 10 2 5 14 -4 12 -2 15 8 12 8 -3 14
-16 14 -29 0 -21 -5 -25 -45 -29 -28 -3 -40 -8 -33 -13 14 -9 17 -54 7 -81 -3
-9 -15 -16 -26 -16 -14 0 -18 5 -14 16 3 8 2 12 -4 9 -15 -9 -12 -35 5 -42 28
-10 55 26 55 73 l0 43 90 3 c50 2 90 -1 90 -6 0 -4 6 -6 14 -3 7 3 18 1 24 -5
6 -6 12 0 16 17 7 26 8 27 26 10 19 -17 20 -17 20 2 0 26 23 46 55 46 32 0 60
-22 45 -37 -16 -16 -12 -26 10 -26 13 0 22 -9 26 -25 8 -32 -2 -59 -20 -52 -8
3 -20 -1 -27 -9 -27 -33 -86 7 -63 43 14 23 36 29 28 9 -4 -11 -1 -16 11 -16
22 0 15 34 -8 38 -26 5 -47 -16 -47 -49 0 -35 -13 -37 -45 -5 -13 13 -26 19
-27 14 -3 -7 -17 -4 -38 7 -41 21 -112 24 -134 5 -20 -16 -21 -54 -1 -70 22
-18 65 -4 65 21 0 12 -5 19 -12 16 -7 -2 -12 -10 -10 -16 1 -8 -6 -11 -20 -9
-32 4 -30 39 3 55 22 11 36 10 80 -3 47 -14 51 -18 36 -29 -9 -7 -17 -14 -17
-16 0 -2 24 -5 53 -5 28 -1 76 -5 104 -9 66 -9 97 8 114 64 9 32 9 44 -4 69
-12 26 -13 32 -1 36 8 3 14 1 14 -5 0 -6 14 6 32 28 l32 38 38 -41 c26 -28 38
-50 38 -70 -1 -26 -2 -27 -14 -11 -13 16 -14 16 -29 -5 -15 -23 -15 -23 -36
-4 -12 11 -19 27 -16 35 3 10 0 9 -10 -3 -21 -28 -19 -99 3 -119 10 -10 22
-17 27 -17 5 0 1 6 -9 13 -16 12 -16 14 2 30 18 16 20 16 36 -2 17 -18 17 -20
-1 -30 -10 -6 -13 -11 -6 -11 6 0 21 12 32 28 l20 27 1 -37 0 -38 -350 0 -350
0 0 -75 0 -75 705 0 705 0 0 75 0 75 -350 0 -350 0 0 38 0 37 26 -30 25 -30
-17 31 c-22 42 -9 103 26 121 17 9 20 13 8 13 -9 0 -28 -15 -42 -32 l-26 -33
0 29 c0 20 12 42 39 71 l39 42 31 -40 c17 -22 31 -35 31 -29 0 6 7 9 15 6 11
-5 12 -11 5 -24 -6 -10 -10 -37 -10 -58 0 -72 77 -112 157 -81 15 6 47 11 71
11 36 0 41 2 31 14 -9 11 -6 16 17 25 56 21 79 21 104 1 15 -12 21 -25 17 -35
-7 -19 -48 -24 -45 -6 2 6 -3 14 -10 16 -20 8 -11 -27 11 -41 22 -14 51 3 55
33 8 50 -50 71 -119 46 -24 -9 -52 -17 -61 -16 -10 0 -18 -4 -18 -8 0 -7 -44
-31 -57 -31 -3 0 -2 7 1 16 10 25 -21 66 -47 62 -26 -4 -37 -38 -12 -38 11 0
15 5 11 15 -7 19 8 19 24 0 27 -33 -13 -80 -50 -57 -11 6 -26 12 -35 12 -20 0
-31 46 -15 65 7 8 19 15 26 15 16 0 19 16 4 25 -16 10 5 32 35 37 28 6 65 -16
65 -38 0 -17 12 -18 27 -3 9 9 14 5 19 -15 4 -18 10 -24 16 -18 6 6 17 8 24 5
8 -3 14 -1 14 3 0 5 40 8 90 6 l90 -3 0 -43 c0 -47 27 -83 55 -73 16 7 21 47
5 47 -5 0 -7 -7 -4 -15 7 -18 -17 -20 -34 -3 -16 16 -15 75 1 85 7 5 -5 10
-33 13 -40 4 -45 8 -45 29 0 13 6 26 14 29 10 3 12 0 8 -12 -5 -12 -3 -16 5
-14 21 7 15 33 -9 36 -13 2 -23 12 -26 25 l-4 22 -2 -22 c-1 -16 -7 -23 -21
-23 -13 0 -20 -7 -20 -20 0 -11 4 -20 10 -20 5 0 7 7 3 16 -4 12 -2 15 8 12 8
-2 15 -17 17 -31 3 -24 0 -27 -27 -27 -17 0 -31 5 -31 10 0 6 -7 10 -16 10
-14 0 -47 21 -94 62 -10 8 -33 12 -61 10 -40 -3 -47 -1 -52 17 -5 22 -47 31
-47 10 0 -6 9 -8 20 -4 23 7 28 -13 8 -33 -15 -15 -58 -16 -58 -2 0 6 -11 10
-24 10 -26 0 -47 21 -28 28 17 5 15 22 -4 22 -10 0 -14 6 -10 18 3 9 8 35 12
56 6 36 5 39 -12 31 -39 -16 -70 -17 -84 0 -10 12 -10 19 -1 28 9 9 14 9 21
-3 8 -13 10 -12 10 3 0 9 -7 17 -15 17 -8 0 -15 6 -15 14 0 8 -4 18 -10 21 -5
3 -10 -3 -10 -14z m76 -95 c18 5 24 2 24 -10 0 -45 -66 -146 -95 -146 -13 0
-58 46 -73 75 -5 11 -12 34 -13 50 -4 27 -2 30 24 27 15 -2 35 1 44 7 10 5 26
5 41 0 13 -5 34 -6 48 -3z m-363 -408 l16 -23 0 23 c1 20 6 22 56 22 48 0 55
-3 55 -19 0 -11 5 -23 10 -26 6 -4 10 5 10 19 0 24 4 26 40 26 22 0 40 -4 40
-10 0 -5 -6 -10 -12 -10 -9 0 -9 -3 1 -9 12 -8 12 -12 2 -25 -11 -13 -11 -16
3 -16 12 0 16 9 16 36 0 31 3 35 23 32 18 -2 22 -9 20 -32 -1 -17 3 -36 9 -43
8 -10 6 -13 -6 -13 -9 0 -16 6 -17 13 0 10 -2 10 -6 0 -2 -8 -22 -13 -44 -13
-38 0 -39 1 -40 38 l0 37 -16 -37 c-8 -21 -19 -38 -23 -38 -5 0 -14 16 -20 35
-8 24 -18 35 -31 35 -10 0 -19 -5 -19 -11 0 -5 5 -7 10 -4 6 3 10 -1 10 -10 0
-9 -4 -13 -10 -10 -5 3 -10 1 -10 -4 0 -6 7 -11 15 -11 8 0 15 -4 15 -10 0 -5
-17 -10 -39 -10 -29 0 -43 6 -54 23 l-16 22 0 -22 c-1 -44 -21 -23 -21 22 0
50 10 56 33 23z m338 0 c1 -17 2 -19 6 -5 5 18 23 24 23 7 0 -5 5 -10 10 -10
6 0 10 7 10 15 0 8 5 15 11 15 10 0 9 -13 -6 -67 -3 -10 4 1 15 25 22 49 33
48 50 -3 16 -48 33 -45 28 5 -2 28 0 40 9 40 8 0 13 -13 13 -35 0 -24 5 -35
15 -35 10 0 15 10 15 34 0 32 2 34 36 34 34 0 35 -1 18 -19 -15 -17 -16 -20 0
-44 14 -21 14 -25 2 -25 -8 0 -20 8 -26 18 -11 16 -11 16 -6 0 5 -16 -2 -18
-60 -18 -41 0 -63 4 -59 10 3 6 -1 10 -9 10 -9 0 -16 -4 -16 -10 0 -14 -47
-12 -54 3 -5 10 -7 10 -12 0 -10 -22 -21 -14 -32 26 -15 49 -15 51 3 51 9 0
15 -10 16 -22z"/>
<path d="M207 1513 c-11 -10 -8 -289 4 -409 20 -196 103 -467 190 -619 64
-112 136 -205 159 -205 11 0 20 2 20 4 0 3 -24 37 -54 77 -72 96 -157 261
-200 390 -60 179 -77 281 -83 502 -3 108 -3 197 0 197 2 0 35 -14 71 -31 130
-61 259 -51 417 33 l75 40 47 -32 c135 -91 318 -104 459 -34 l48 24 6 -26 c11
-43 -14 -370 -36 -472 -45 -215 -139 -432 -252 -583 -32 -44 -58 -81 -58 -84
0 -3 8 -5 19 -5 20 0 72 63 136 164 82 128 153 316 195 512 17 79 23 147 27
332 3 127 3 232 -1 232 -4 0 -29 -16 -57 -35 -66 -45 -135 -65 -225 -65 -83 0
-181 30 -238 74 -47 35 -92 34 -152 -4 -77 -48 -138 -65 -239 -65 -76 0 -99 5
-148 27 -32 15 -70 37 -84 48 -27 21 -36 24 -46 13z"/>
<path d="M750 1439 c-84 -56 -145 -73 -255 -73 -99 0 -102 1 -219 49 -19 8
-19 3 -13 -146 15 -371 108 -660 288 -899 33 -44 65 -80 71 -80 6 0 -5 19 -24
42 -160 198 -264 451 -304 741 l-6 47 516 0 516 0 -6 -42 c-28 -187 -80 -361
-151 -503 -47 -93 -129 -220 -163 -250 -11 -10 -20 -22 -20 -28 0 -36 131 141
192 259 87 168 148 386 168 599 12 129 13 255 3 255 -5 0 -33 -10 -63 -21 -31
-12 -90 -23 -136 -26 -97 -7 -165 10 -272 68 -41 21 -74 39 -75 38 -1 0 -22
-14 -47 -30z m302 -136 c26 -23 25 -96 -2 -123 -38 -38 -90 -18 -105 40 -7 28
9 80 28 92 20 13 60 9 79 -9z m147 -9 c23 -30 27 -64 10 -97 -36 -67 -119 -39
-119 41 0 78 66 111 109 56z"/>
<path d="M1446 982 c-9 -17 -16 -47 -16 -66 0 -27 -3 -34 -15 -30 -11 5 -14 0
-13 -17 1 -13 -6 -54 -16 -91 -18 -64 -18 -67 0 -104 26 -53 40 -53 36 -2 -4
39 20 109 37 108 13 -1 51 -91 51 -120 0 -35 10 -38 35 -10 13 14 20 43 24 94
6 69 5 74 -11 65 -14 -8 -20 -6 -24 8 -3 10 -12 36 -21 58 -9 22 -24 62 -33
89 l-18 49 -16 -31z"/>
<path d="M119 952 c-20 -55 -53 -145 -56 -151 -1 -2 -9 2 -18 9 -14 11 -15 6
-10 -46 9 -84 13 -101 31 -118 21 -22 33 -20 27 3 -6 23 44 134 56 126 22 -13
43 -78 37 -113 l-7 -37 26 28 c30 33 33 85 9 143 -9 20 -14 50 -12 66 3 20 1
27 -8 24 -8 -3 -15 9 -19 37 -8 45 -21 77 -33 77 -4 0 -14 -22 -23 -48z"/>
<path d="M960 950 c0 -33 -18 -60 -90 -135 -43 -44 -70 -82 -74 -102 -9 -38
-26 -54 -26 -23 0 26 15 55 47 94 16 19 23 38 20 53 -3 17 0 23 14 23 10 0 21
5 25 12 4 7 3 8 -5 4 -6 -4 -34 -2 -61 5 -40 10 -52 10 -64 0 -11 -10 -16 -10
-16 -2 0 8 -4 8 -14 -1 -8 -8 -10 -15 -4 -19 14 -9 -9 -49 -25 -45 -6 1 -8 1
-4 -2 4 -2 3 -10 -4 -18 -9 -11 -9 -14 0 -14 6 0 14 6 17 14 3 9 13 12 27 8
19 -5 20 -3 10 10 -16 18 -7 28 24 28 39 0 27 -30 -35 -89 -62 -59 -79 -100
-63 -144 10 -25 66 -77 83 -77 7 0 8 -13 5 -34 -3 -21 -1 -36 5 -38 7 -3 0
-24 -17 -56 -22 -41 -32 -51 -46 -47 -10 4 -27 2 -36 -4 -11 -6 -13 -11 -5
-11 7 0 11 -4 7 -10 -3 -5 7 -5 25 2 17 5 44 8 60 4 17 -3 30 -1 30 4 0 5 -9
10 -21 12 -19 3 -19 5 10 43 17 22 31 46 31 53 0 7 5 10 10 7 12 -8 13 -3 0
29 -5 14 -17 26 -27 27 -10 0 -13 3 -7 5 6 3 23 0 37 -5 20 -8 27 -18 27 -36
0 -15 4 -24 10 -20 6 3 10 -3 10 -15 0 -11 7 -37 15 -56 15 -36 15 -36 -8 -30
-29 7 -56 -9 -41 -24 8 -8 19 -8 39 0 15 6 43 7 63 4 25 -5 33 -4 28 5 -4 6
-16 11 -26 11 -13 0 -22 11 -29 38 -14 47 -14 62 -1 62 7 0 7 6 0 19 -5 11
-10 31 -10 45 0 14 -6 29 -13 33 -18 12 -57 64 -57 77 0 6 6 2 12 -9 6 -11 26
-36 45 -56 18 -20 38 -49 43 -65 l8 -29 1 33 c1 26 -9 43 -46 84 -27 28 -38
45 -25 37 12 -8 22 -16 22 -20 0 -8 59 2 65 11 3 4 -11 11 -30 14 -40 8 -42
13 -17 33 10 9 11 11 2 7 -10 -5 -9 -1 3 14 19 20 18 21 -5 16 -21 -5 -21 -4
5 11 33 19 34 25 5 18 l-23 -5 24 17 c21 16 22 19 6 27 -21 12 -60 -22 -80
-69 -8 -18 -18 -33 -24 -33 -5 0 -3 12 5 28 7 15 14 32 14 39 0 7 36 48 80 92
65 64 80 85 80 110 0 16 -4 33 -10 36 -5 3 -10 -3 -10 -15z"/>
<path d="M308 469 c-78 -40 -163 -61 -213 -53 l-40 6 20 -23 c11 -13 29 -31
40 -40 20 -17 20 -18 -13 -51 -18 -19 -29 -37 -26 -41 4 -4 36 -7 71 -7 83 0
171 30 214 73 19 18 42 38 52 44 18 9 17 13 -13 66 -18 32 -33 57 -33 57 -1
-1 -28 -14 -59 -31z"/>
<path d="M1200 438 c-30 -48 -31 -52 -13 -61 10 -6 36 -28 57 -49 55 -53 181
-89 262 -73 l37 6 -37 35 c-20 19 -36 36 -36 39 0 3 16 19 35 36 19 17 35 35
35 39 0 4 -20 5 -44 3 -49 -6 -135 16 -208 53 -26 13 -49 24 -52 24 -2 0 -19
-23 -36 -52z"/>
<path d="M715 254 c-16 -2 -90 -16 -164 -30 -106 -21 -140 -24 -167 -16 -19 5
-34 8 -34 4 0 -17 107 -142 129 -152 21 -8 46 -6 116 12 123 30 278 30 392 0
45 -12 92 -22 104 -22 23 0 125 95 147 137 11 19 9 20 -37 15 -30 -3 -92 5
-167 21 -117 25 -260 39 -319 31z"/>
</g>
</svg>
